<?xml version="1.0" encoding="UTF-8"?>
<svg width="370px" height="369px" viewBox="0 0 370 369" version="1.1" xmlns="http://www.w3.org/2000/svg" xmlns:xlink="http://www.w3.org/1999/xlink">
    <g id="Logo" transform="translate(-37.000000, -30.000000)">
        <g id="Group" transform="translate(134.684781, 323.213696) rotate(38.739780) translate(-134.684781, -323.213696) translate(86.343687, 278.168586)">
            <path d="M4.12290938,6.41984379 C18.1901678,2.53644256 33.0045158,0.462170158 48.3000774,0.462170158 C63.6044284,0.462170158 78.4275657,2.53937232 92.5021485,6.42643576 C88.3294332,32.2508342 89.7840606,58.4524397 96.3965363,83.2792537 C81.0746068,87.4175443 64.9638385,89.625121 48.3410941,89.625121 C31.6941792,89.625121 15.5607052,87.4109524 0.218999805,83.2609427 C6.83294041,58.4385233 8.29123008,32.24058 4.12290938,6.41984379 Z" id="Shape"></path>
        </g>
        <g id="Group" transform="translate(203.240901, 378.215697) rotate(38.739780) translate(-203.240901, -378.215697) translate(174.675709, 344.889639)">
            <path d="M2.37091094,0.631363987 C22.9363843,8.89329644 41.4693344,21.158018 57.0044042,36.4579743 C41.8494711,48.8347592 24.6891152,58.8457604 6.08878054,65.9269982 C0.594009505,44.8019401 -0.763203335,22.5957993 2.37091094,0.631363987 Z" id="Shape"></path>
        </g>
        <g id="Group" transform="translate(66.072186, 267.696871) rotate(38.739780) translate(-66.072186, -267.696871) translate(37.873214, 234.737034)">
            <path d="M54.7016102,0.621842256 C57.8313298,22.5811505 56.4719197,44.7821642 50.9771486,65.9020952 C32.3826735,58.8157303 15.2289095,48.8003345 0.081300931,36.4213522 C15.6141734,21.1323825 34.1427288,8.87718274 54.7016102,0.621842256 Z" id="Shape"></path>
        </g>
        <g id="Group" transform="translate(272.432947, 346.397979) rotate(38.739780) translate(-272.432947, -346.397979) translate(215.668784, 286.704052)">
            <path d="M44.3485592,0.431407643 C64.6144643,16.9479481 88.0174134,28.7849242 112.807605,35.4735738 C104.336927,67.4607293 87.4629557,96.0449648 64.6957652,118.716205 C46.5158516,100.601479 24.5755868,86.258823 0.153080131,76.9670787 C3.82407352,62.8426899 9.43457021,48.9753879 17.0819848,35.7299281 C24.7345265,22.475679 33.9449698,10.6767898 44.3485592,0.431407643 Z" id="Shape"></path>
        </g>
        <g id="Group" transform="translate(82.189715, 193.767428) rotate(38.739780) translate(-82.189715, -193.767428) translate(25.425551, 134.073502)">
            <path d="M69.1365539,0.414561504 C79.5328189,10.6555491 88.7366702,22.4478463 96.3840849,35.6940385 C104.036627,48.9482876 109.649321,62.8236465 113.320314,76.9568245 C88.9051316,86.2412444 66.969994,100.572914 48.7915452,118.675189 C26.0360738,96.0017507 9.17308883,67.4182477 0.710467596,35.4347544 C25.4874757,28.7483022 48.8787057,16.9186505 69.1365539,0.414561504 Z" id="Shape"></path>
        </g>
        <g id="Group" transform="translate(221.855814, 214.270066) rotate(38.739780) translate(-221.855814, -214.270066) translate(125.355814, 130.770066)">
            <path d="M48.6691899,0.270848297 C63.9786679,4.40181452 80.0747874,6.60499651 96.6821505,6.60499651 C113.27926,6.60499651 129.365857,4.40401185 144.666546,0.278905146 C148.744044,15.6015671 154.884095,30.6437042 163.187045,45.0259122 C171.485599,59.3993308 181.435075,72.2302291 192.658266,83.4182626 C181.427018,94.6106908 171.470218,107.448914 163.166536,121.831121 C154.867982,136.20454 148.73086,151.237156 144.653362,166.550296 C129.344616,162.420062 113.247765,160.216148 96.6411338,160.216148 C80.0440249,160.216148 63.9566947,162.417132 48.6567384,166.542971 C44.5792403,151.219577 38.4391889,136.17744 30.1355074,121.795964 C21.8369529,107.422546 11.8874768,94.5909149 0.664286088,83.4028814 C11.8962661,72.2104532 21.8530666,59.3722305 30.1560157,44.9900226 C38.4545702,30.6166039 44.5924243,15.584721 48.6691899,0.270848297 Z" id="Shape"></path>
        </g>
        <g id="Group" transform="translate(341.973666, 310.634356) rotate(38.739780) translate(-341.973666, -310.634356) translate(311.211152, 280.604282)">
            <path d="M58.7087939,0.559584787 C60.255709,10.1560244 61.059929,20.000029 61.059929,30.0300736 C61.059929,40.013242 60.2637658,49.8118353 58.7307672,59.3657934 C37.7111805,53.559735 17.8224825,43.6380916 0.384531431,29.9546322 C17.8173554,16.2792297 37.6979966,6.36344585 58.7087939,0.559584787 Z" id="Shape"></path>
        </g>
        <g id="Group" transform="translate(102.256421, 117.841705) rotate(38.739780) translate(-102.256421, -117.841705) translate(71.493907, 88.177852)">
            <path d="M2.81916472,0.542006207 C23.8138484,6.35026191 43.6798408,16.2660457 61.0987483,29.9348563 C43.670319,43.6073291 23.7940725,53.5223805 2.78766976,59.3262416 C1.25906577,49.784735 0.465099921,39.9993256 0.465099921,30.0300736 C0.465099921,19.9941695 1.27005238,10.1443054 2.81916472,0.542006207 Z" id="Shape"></path>
        </g>
        <g id="Group" transform="translate(361.525547, 234.765108) rotate(38.739780) translate(-361.525547, -234.765108) translate(305.127604, 175.071182)">
            <path d="M64.6313104,0.606460999 C87.3999658,23.2571934 104.282727,51.8187231 112.773181,83.7839054 C87.996905,90.4703577 64.6071399,102.300009 44.3507565,118.803366 C33.9537591,108.561646 24.7506402,96.7693487 17.1024932,83.5231565 C9.4506839,70.2696398 3.8379899,56.3935485 0.166996507,42.2611029 C24.5528812,32.9876697 46.4653132,18.6779734 64.6313104,0.606460999 Z" id="Shape"></path>
        </g>
        <g id="Group" transform="translate(171.853615, 82.592908) rotate(38.739780) translate(-171.853615, -82.592908) translate(115.455672, 22.898982)">
            <path d="M48.1645759,0.606460999 C66.3239812,18.6713814 88.2268914,32.976683 112.601789,42.2508487 C108.930796,56.3752375 103.320299,70.2418071 95.6721524,83.4879993 C88.0203431,96.741516 78.8098998,108.540405 68.405578,118.785787 C48.1623786,102.287558 24.7879947,90.4586386 0.0278327512,83.7655944 C8.51975162,51.8077365 25.4003152,23.2527987 48.1645759,0.606460999 Z" id="Shape"></path>
        </g>
        <g id="Group" transform="translate(309.316131, 105.548015) rotate(38.739780) translate(-309.316131, -105.548015) translate(260.975037, 60.502905)">
            <path d="M0.289314124,6.81023475 C15.6105112,2.67267655 31.7198146,0.465099921 48.3410941,0.465099921 C64.9587115,0.465099921 81.0643527,2.67194411 96.38262,6.80730498 C89.8016392,31.5857779 88.3579983,57.7309854 92.5182622,83.5004508 C78.4502714,87.3831196 63.6359233,89.457392 48.3410941,89.457392 C33.0367432,89.457392 18.2136059,87.3809223 4.13902307,83.4931264 C8.3022167,57.7280557 6.86370293,31.5865104 0.289314124,6.81023475 Z" id="Shape"></path>
        </g>
        <g id="Group" transform="translate(378.387077, 160.493540) rotate(38.739780) translate(-378.387077, -160.493540) translate(350.188105, 127.533703)">
            <path d="M5.34315578,0.719989326 C23.9193199,7.79024056 41.0591675,17.7829307 56.1994517,30.1348127 C40.6819605,45.3893576 22.1805054,57.6181896 1.65531625,65.8603461 C-1.4678114,43.949379 -0.121585176,21.7974388 5.34315578,0.719989326 Z" id="Shape"></path>
        </g>
        <g id="Group" transform="translate(240.703535, 50.031190) rotate(38.739780) translate(-240.703535, -50.031190) translate(212.504564, 17.071353)">
            <path d="M51.0445332,0.724383971 C56.5026822,21.7981713 57.8445138,43.9449843 54.7184564,65.8500919 C34.202789,57.6086678 15.7093907,45.3834981 0.198491462,30.1348127 C15.3358459,17.785128 32.4727638,7.79390277 51.0445332,0.724383971 Z" id="Shape"></path>
        </g>
    </g>
</svg>
